/* XPM */
static char * button_down_xpm[] = {
"32 32 7 1",
" 	c #1A1C2C",
".	c #333C57",
"+	c #AFAFAF",
"@	c #4D5559",
"#	c #000000",
"$	c #EF0000",
"%	c #AF0000",
"                                ",
"  .............   ............. ",
" ............... ...............",
" ............... ...............",
" ............... ...............",
" ............... ...............",
" ............... ...............",
" ............... ...............",
" ............... ...............",
" ........++++++++++++++.........",
" ........+@++++++++++@+.........",
" ........++++++++++++++.........",
" ........+++++####+++++.........",
" ........++++#$$$$#++++.........",
" ........+++#$$%%$$#+++.........",
"  .......+++#$%$$%$#+++........ ",
"         +++#$$%%$$#+++         ",
"  .......+++##$$$$##+++........ ",
" ........++++######++++.........",
" ........+++++####+++++.........",
" ........++++++++++++++.........",
" ........+@++++++++++@+.........",
" ........++++++++++++++.........",
" ............... ...............",
" ............... ...............",
" ............... ...............",
" ............... ...............",
" ............... ...............",
" ............... ...............",
" ............... ...............",
" ............... ...............",
"  .............   ............. "};
