/* XPM */
static char * orb_xpm[] = {
"32 32 6 1",
" 	c #1A1C2C",
".	c #333C57",
"+	c #FFD0F9",
"@	c #916494",
"#	c #000000",
"$	c #FF42E6",
"                                ",
"  .............   ............. ",
" ............... ...............",
" ............... ...............",
" ............... ...............",
" ............... ...............",
" ............... ...............",
" ............... ...............",
" ............... ...............",
" .............++++..............",
" ...........++@###++............",
" ..........+@++@####+...........",
" .........+##@@+@##@++..........",
" .........+##@+@##@+@+..........",
" ........+###@@+@@++@#+.........",
"  .......+@#@+@+$+@@##+........ ",
"         ++@+@+$$@####+         ",
"  .......+@++@@+@+@###+........ ",
" .........+@@@+@@++@@+..........",
" .........+##@+@#@@+++..........",
" ..........+##@+@##@+...........",
" ...........++#@+@++............",
" .............++++..............",
" ............... ...............",
" ............... ...............",
" ............... ...............",
" ............... ...............",
" ............... ...............",
" ............... ...............",
" ............... ...............",
" ............... ...............",
"  .............   ............. "};
