/* XPM */
static char * players red x2_xpm[] = {
"32 32 8 1",
" 	c None",
".	c #FFCD75",
"+	c #B13E53",
"@	c #1A1C2C",
"#	c #EF7D57",
"$	c #5D275D",
"%	c #333C57",
"&	c #41A6F6",
"                                ",
"               ........         ",
"               ........         ",
"   ++++++++@@..####++##@@@@     ",
"   ++++++++@@..####++##@@@@     ",
" ++++++++++@@##....$$..@@@@@@   ",
" ++++++++++@@##....$$..@@@@@@   ",
" ++++++++++@@@@........@@@@@@   ",
" ++++++++++@@@@........@@@@@@   ",
" ++++++++++@@@@@@@@@@@@@@@@@@   ",
" ++++++++++@@@@@@@@@@@@@@@@@@   ",
" ++++++++@@@@++++++++++++@@@@   ",
" ++++++++@@@@++++++++++++@@@@   ",
" @@@@@@@@%%%%%%%%%%%%%%%%%%%%%%%",
" @@@@@@@@%%%%%%%%%%%%%%%%%%%%%%%",
" @@@@@@@@%%%%%%%%%%%%%%%%%%%%%%&",
" @@@@@@@@%%%%%%%%%%%%%%%%%%%%%%&",
" @@@@@@@@@@%%%%%%%%%%%%%%%%%%%%&",
" @@@@@@@@@@%%%%%%%%%%%%%%%%%%%%&",
"   @@@@++++++%%%%%%%%%%%%%%%%%%&",
"   @@@@++++++%%%%%%%%%%%%%%%%%%&",
"     @@++++++%%%%%%%%%%%%@@@@@@%",
"     @@++++++%%%%%%%%%%%%@@@@@@%",
"       ++++++++++++++++++@@@@@@ ",
"       ++++++++++++++++++@@@@@@ ",
"       @@@@@@@@@@++++@@@@       ",
"       @@@@@@@@@@++++@@@@       ",
"       @@@@          @@@@       ",
"       @@@@          @@@@       ",
"       ++            ++         ",
"       ++            ++         ",
"         @@@@@@@@@@@@           "};
