/* XPM */
static char * ennemy2_xpm[] = {
"32 32 11 1",
" 	c None",
".	c #000000",
"+	c #FFCD75",
"@	c #EF0000",
"#	c #B13E53",
"$	c #1A1C2C",
"%	c #B81A0A",
"&	c #EF7D57",
"*	c #5D275D",
"=	c #333C57",
"-	c #0C15F6",
"                          ...   ",
"               ++++++++   .@.   ",
"               ++++++++   .@.   ",
"   ########$$++%%%%##%%$$$.@.   ",
"   ########$$++%%%%##%%$$$.@.   ",
" ##########$$&&++++**++$$$.@.   ",
" ##########$$&&++++**++$$$$.$   ",
" ##########$$$$++++++++$$$.@.   ",
" ##########$$$$++++++++$$$$.$   ",
" ##########$$$$$$$$$$$$$$$$$$   ",
" ##########$$$$$$$$$$$$$$$$$$   ",
" ########$$$$############$$$$   ",
" ########$$$$############$$$$   ",
" $$$$$$$$=======================",
" $$$$$$$$=======================",
" $$$$$$$$======================-",
" $$$$$$$$======================-",
" $$$$$$$$$$====================-",
" $$$$$$$$$$====================-",
"   $$$$######==================-",
"   $$$$######==================-",
"     $$######============$$$$$$=",
"     $$######============$$$$$$=",
"       ##################$$$$$$ ",
"       ##################$$$$$$ ",
"       $$$$$$$$$$####$$$$       ",
"       $$$$$$$$$$####$$$$       ",
"       $$$$          $$$$       ",
"       $$$$          $$$$       ",
"       ##            ##         ",
"       ##            ##         ",
"         $$$$$$$$$$$$           "};
