/* XPM */
static char * Player3_xpm[] = {
"32 32 7 1",
" 	c None",
".	c #5D275D",
"+	c #1A1C2C",
"@	c #EF7D57",
"#	c #B13E53",
"$	c #3B5DC9",
"%	c #73EFF7",
"                                ",
"           ............         ",
"           ............         ",
"           ............         ",
"           ............         ",
"         ++....++++++           ",
"         ++....++++++           ",
"           ++@@@@##@@           ",
"           ++@@@@##@@           ",
"       $$$$++@@@@@@@@++         ",
"       $$$$++@@@@@@@@++         ",
"     $$$$$$++++++++++++++       ",
"     $$$$$$++++++++++++++       ",
"     $$$$++++$$$$$$$$++++       ",
"     $$$$++++$$$$$$$$++++       ",
"     ++++++$$$$%%%%%%++         ",
"     ++++++$$$$%%%%%%++         ",
"     $$++++$$$$$$$$$$++$$       ",
"     $$++++$$$$$$$$$$++$$       ",
"     $$$$++++++++++++++++       ",
"     $$$$++++++++++++++++       ",
"     $$$$++++$$$$$$$$++$$       ",
"     $$$$++++$$$$$$$$++$$       ",
"         ++++++$$$$++++$$       ",
"         ++++++$$$$++++$$       ",
"         $$        $$++++       ",
"         $$        $$++++       ",
"         ++++++++++++           ",
"         ++++++++++++           ",
"           ++++++++             ",
"           ++++++++             ",
"                                "};
