/* XPM */
static char * tileset x1_xpm[] = {
"32 32 4 1",
" 	c None",
".	c #566C86",
"+	c #94B0C2",
"@	c #333C57",
"..............................  ",
"+++++++++++++++++++++++++++++.. ",
"++++++++++++++++++++++++++++++..",
"+++++++++++++++++++++++++++++++.",
"+++++++++++++++++++++++++++++++.",
"++++++++++++++++++++++++++++++..",
"+++++++++++++++++++++++++++++...",
"................................",
"@@@@@@@@@@@@@@@@@@@@@@@@@@@@@...",
"@@@.......................@@@...",
"@@.........................@@...",
"@...........................@...",
"@...........................@...",
"@...........................@...",
"@...........................@...",
"@...........................@...",
"@...........................@...",
"@...........................@...",
"@...........................@...",
"@...........................@...",
"@...........................@...",
"@...........................@...",
"@...........................@...",
"@...........................@...",
"@...........................@...",
"@...........................@...",
"@...........................@...",
"@...........................@...",
"@...........................@...",
"@...........................@...",
"@@.........................@@.. ",
"@@@.......................@@@.  "};
