/* XPM */
static char * ExitOpen_xpm[] = {
"32 32 9 1",
" 	c #1A1C2C",
".	c #333C57",
"+	c #000000",
"@	c #FFFFFF",
"#	c #AFAFAF",
"$	c #41C73A",
"%	c #9BADB7",
"&	c #222034",
"*	c #4D5559",
"                                ",
"  .............   ............. ",
" ............... ...............",
" ............... ...............",
" ............... ...............",
" ............... ...............",
" ............... ...............",
" ............... ...............",
" .........++++++++..............",
" ........+@@@@@@@@+.............",
" ........+########+.............",
" ........+#++++++#+.............",
" .......++#+$++++#++++++........",
" .......++#++++++#+%%%%+........",
" .......++#++++++#+%+%%+........",
"  ......++########++%+%+....... ",
"        +%++++++++%%%+%+        ",
"  ......++#&#&#&#&+%+@++....... ",
" .......++&#&#&#&#+%+#++........",
" .......+++++++++++%%+%+........",
" .......+**************+........",
" .......++*++++++++++*++........",
" ........+*+.... ...+*+.........",
" .........+..... ....+..........",
" ............... ...............",
" ............... ...............",
" ............... ...............",
" ............... ...............",
" ............... ...............",
" ............... ...............",
" ............... ...............",
"  .............   ............. "};
